<svg width="80" height="80" viewBox="0 0 80 80" fill="none" xmlns="http://www.w3.org/2000/svg">
<g clip-path="url(#clip0_1000_92)">
<path d="M0 40C0 17.9086 17.9086 0 40 0C62.0914 0 80 17.9086 80 40C80 62.0914 62.0914 80 40 80C17.9086 80 0 62.0914 0 40Z" fill="#FEFEFE"/>
<path d="M38.7763 7.39895C39.392 7.34933 40.0292 7.3578 40.6459 7.38982C45.1743 7.62494 49.5864 10.2849 52.5502 13.6028C56.5471 18.0771 57.4417 23.1209 57.1025 28.9454C57.0256 30.3857 56.9094 31.8228 56.7542 33.2567C56.5989 34.6906 56.4048 36.1192 56.1717 37.5426C55.8455 39.6551 55.5193 41.7823 54.7339 43.7835C54.0811 45.4474 53.106 47.0282 52.1549 48.5354C51.1551 50.1197 50.1888 51.5511 48.7771 52.8065C48.9011 53.4677 49.1418 54.1629 49.4814 54.7454C49.613 54.6247 49.7525 54.4793 49.9252 54.4211C50.0678 54.3731 50.2382 54.3729 50.3732 54.4445C50.6105 54.5704 50.7287 54.8099 50.813 55.0518C51.4573 55.5147 52.2676 55.864 52.982 56.204C56.2027 57.7371 60.4061 58.8261 63.122 61.1064C63.9928 61.8375 64.7364 62.7261 65.3804 63.6596C66.7099 65.5866 67.6136 67.7232 68.7936 69.7315C69.0988 70.2601 69.4286 70.7728 69.7832 71.2696C69.9593 71.515 70.1825 71.7504 70.3365 72.0084C70.3867 72.0924 70.4574 72.2226 70.4521 72.3242C70.4467 72.4297 70.425 72.4901 70.34 72.5567C70.295 72.5919 70.1961 72.6226 70.1418 72.6163C69.8555 72.5835 69.5341 72.067 69.3736 71.8475C68.2281 70.2815 67.4118 68.5847 66.505 66.8801C66.2155 66.3358 65.9168 65.7922 65.595 65.2662C64.9235 64.1686 64.1855 63.0897 63.2752 62.1737C62.231 61.1229 60.9093 60.3623 59.5826 59.725C57.0727 58.5193 54.3968 57.7145 51.9131 56.4393C51.422 56.1871 50.8706 55.9371 50.4411 55.5896C50.2887 55.4662 50.1787 55.3029 50.0658 55.1446C47.9258 58.0943 45.5804 60.7061 41.9336 61.7118C39.8686 62.2593 37.4982 62.0206 35.5246 61.2274C33.4011 60.374 32.0115 59.1614 30.8268 57.2186C30.5511 56.7666 30.2629 56.3133 30.0562 55.8247C27.6146 56.8691 25.1461 57.8258 22.6728 58.792C21.4447 59.2719 20.179 59.7467 19.0325 60.4036C16.0757 62.0977 14.4483 65.122 12.9019 68.028C12.3778 69.013 10.8689 71.959 10.1284 72.5642C10.0236 72.6498 9.94379 72.6887 9.80597 72.6781C9.71238 72.6274 9.67011 72.569 9.6334 72.4707C9.59551 72.3693 9.57761 72.2765 9.6316 72.1769C9.75629 71.9465 9.96277 71.7234 10.1156 71.5054C10.4761 70.9911 10.8314 70.4534 11.1374 69.9049C13.28 66.064 14.9225 61.8718 18.9964 59.6654C20.4339 58.8868 21.9758 58.3419 23.4936 57.747C24.731 57.262 25.9834 56.7966 27.2071 56.2793C28.2846 55.8239 29.3535 55.3042 30.4496 54.8989C30.8139 54.2708 31.0543 53.6739 31.2507 52.9785C31.1816 52.9236 31.1132 52.8679 31.0456 52.8114C30.0776 52.0028 29.2361 50.7015 28.5218 49.6659C27.7016 48.4764 26.9868 47.2372 26.312 45.9601C25.9168 45.2124 25.5219 44.465 25.2227 43.6724C24.5274 41.831 24.2271 39.8233 23.9077 37.8898C23.5467 35.7047 23.2138 33.5048 23.015 31.2981C22.408 24.5619 22.8002 19.1831 27.2985 13.8037C29.992 10.5825 34.5426 7.77462 38.7763 7.39895Z" fill="#010101"/>
<path d="M25.4109 37.3013C25.6132 37.2923 25.8448 37.3203 26.0019 37.4661C26.0848 37.543 26.0869 37.5788 26.1027 37.6841C26.0616 37.8059 25.9848 37.8449 25.8831 37.9116C25.8265 37.9249 25.7697 37.9402 25.712 37.9475C25.5949 37.9623 25.4352 37.9151 25.3476 37.8337C25.2713 37.7627 25.2327 37.6868 25.2395 37.5806C25.2473 37.4586 25.3309 37.3824 25.4109 37.3013Z" fill="#FEFEFE"/>
<path d="M48.1358 53.3452C48.2466 53.5558 48.3152 53.8173 48.4004 54.0423C48.5777 54.5106 48.7719 54.9515 49.0202 55.3876C47.849 56.9519 46.566 58.4755 44.9307 59.5765C42.683 61.0898 40.251 61.6389 37.5747 61.118C35.1923 60.6544 33.0892 59.409 31.7236 57.3821C31.3871 56.8355 31.0391 56.2851 30.7676 55.7026C31.257 55.0287 31.5905 54.2193 31.8454 53.4313C32.2059 53.7313 32.4804 54.1476 32.7729 54.5119C32.8781 54.6449 32.9878 54.7741 33.102 54.8994C33.2161 55.0248 33.3344 55.1461 33.4569 55.2633C33.5794 55.3806 33.7058 55.4934 33.836 55.6019C33.9663 55.7104 34.1002 55.8143 34.2377 55.9136C35.962 57.1491 38.0924 57.3604 40.1513 57.3479C40.9559 57.3429 41.7634 57.3117 42.5584 57.1801C45.0786 56.7628 46.6848 55.365 48.1358 53.3452Z" fill="#FEFEFE"/>
<path d="M24.0415 25.6377C24.6699 25.6948 25.3163 25.9083 25.938 26.0354C27.1623 26.2859 28.3979 26.5016 29.6283 26.7214C31.2078 26.9978 32.7947 27.2224 34.3889 27.395C35.0338 27.4619 35.6829 27.4786 36.3266 27.5529C35.1049 27.6234 33.8846 27.714 32.6659 27.8249C30.2041 28.0635 27.7149 28.4475 25.6911 29.9954C25.7676 30.4254 25.8992 30.8494 26.0025 31.2739L26.7739 34.355C27.269 36.3455 27.6907 38.3886 28.3051 40.3457C28.7871 40.6804 29.3019 40.9762 29.8026 41.2822C32.2321 42.7669 33.7307 43.1843 36.595 43.4136C37.946 43.5218 39.3002 43.538 40.6546 43.5434C41.6962 43.5475 42.7437 43.5745 43.7823 43.4817C45.8346 43.2982 47.8577 42.6125 49.6796 41.6723C50.2903 41.3572 51.0466 41.0195 51.5703 40.5732C51.7549 39.7215 52.0574 38.8671 52.2916 38.0247C53.004 35.4631 53.7475 32.8268 54.0396 30.1775C54.0153 30.1445 53.9905 30.1117 53.9653 30.0792C52.9054 28.7132 50.1299 28.2239 48.4858 28.0154C47.4077 27.8909 46.3274 27.7901 45.2449 27.7129C44.548 27.6658 43.8013 27.6857 43.1178 27.5693C43.6541 27.4423 44.347 27.4495 44.9103 27.3951C45.9621 27.2878 47.0117 27.1612 48.0589 27.0154C49.9979 26.7372 51.9323 26.43 53.8621 26.0936C54.5789 25.9676 55.2866 25.7878 56.0064 25.6807L52.199 40.8532C50.5111 42.0931 47.8692 43.3654 45.8198 43.844C42.7924 44.551 36.3738 44.6114 33.4277 43.6389C31.2921 42.9339 29.6843 41.9275 27.7967 40.7582C26.6798 36.8741 25.7885 32.9137 24.8456 28.9842C24.7085 28.3985 24.5646 27.8145 24.414 27.2322C24.286 26.748 24.049 26.1371 24.0415 25.6377Z" fill="#FEFEFE"/>
<path d="M39.1887 21.7782C39.6022 21.7635 40.0159 21.7569 40.4296 21.7585C44.7809 21.7903 49.8768 22.0375 53.8437 24.0061C54.4352 24.2997 55.0941 24.6307 55.5597 25.104C54.3435 25.3549 53.1229 25.5818 51.8979 25.7845C50.6728 25.9871 49.4442 26.1655 48.212 26.3196C46.9798 26.4737 45.7451 26.6034 44.5079 26.7086C43.2706 26.8139 42.0317 26.8946 40.7913 26.9509C35.0114 27.1236 29.9907 26.139 24.3867 25.06C25.1408 24.5765 25.8996 24.1444 26.7278 23.7991C30.3282 22.2979 35.3048 21.8532 39.1887 21.7782Z" fill="#FEFEFE"/>
<path d="M41.2496 21.8984C41.3155 21.9066 41.3861 21.9134 41.4481 21.9391C41.7646 22.0702 42.0195 22.5615 42.1572 22.86C42.6463 23.9202 42.7794 25.3148 42.3672 26.4212C42.2586 26.4455 42.1989 26.4482 42.0866 26.4258C41.9925 26.3403 41.9649 26.2927 41.955 26.1645C41.9223 25.7375 42.0427 25.2713 42.0486 24.8369C42.0581 24.1284 41.8479 23.4638 41.5451 22.8282C41.445 22.618 41.3126 22.4016 41.2332 22.1838C41.1866 22.056 41.1898 22.019 41.2496 21.8984Z" fill="#010101"/>
<path d="M23.5077 26.1147C23.6464 26.9003 23.8675 27.6735 24.0488 28.4501C24.3901 29.9765 24.7537 31.4976 25.1396 33.0134C25.4591 34.287 25.6904 35.6058 26.0889 36.8551C25.9794 36.814 25.861 36.7752 25.7446 36.7595C25.5096 36.728 25.2244 36.7608 25.031 36.9076C24.8497 37.0451 24.7529 37.2651 24.7296 37.4876C24.7261 37.52 24.7244 37.5525 24.7243 37.5851C24.7243 37.6177 24.7259 37.6502 24.7293 37.6826C24.7326 37.7151 24.7377 37.7472 24.7445 37.7791C24.7512 37.811 24.7597 37.8425 24.7698 37.8735C24.7799 37.9045 24.7916 37.9349 24.8049 37.9647C24.8181 37.9944 24.833 38.0234 24.8494 38.0516C24.8657 38.0798 24.8835 38.1071 24.9028 38.1334C24.922 38.1597 24.9425 38.185 24.9645 38.2091C25.1385 38.4037 25.3921 38.5351 25.6564 38.5353C25.9581 38.5356 26.2093 38.3853 26.4202 38.1846C26.6531 38.9844 26.8584 40.0816 27.1542 40.8139C27.2113 40.9551 27.2735 41.0814 27.3802 41.1923C27.6594 41.4824 28.0634 41.6851 28.4052 41.8968C29.381 42.5008 30.3222 43.0654 31.3821 43.5136C31.5081 44.0488 31.5835 44.5982 31.6967 45.1368C31.8087 45.6839 31.9452 46.2248 32.106 46.7596C32.2669 47.2944 32.4514 47.8209 32.6597 48.339C33.1145 49.45 33.6663 50.5415 34.3573 51.5255C34.7453 52.0781 35.1846 52.5952 35.5838 53.1407C34.5549 52.8051 33.3952 52.29 32.5482 51.6146C30.2778 49.8042 29.3993 46.5327 28.9624 43.7779C28.91 43.4472 28.8701 42.5887 28.6281 42.3616L28.5274 42.3787C28.4497 42.441 28.4005 42.492 28.3673 42.5859C28.2901 42.804 28.4256 43.3017 28.4601 43.5356C28.7414 45.4462 29.0988 47.473 29.9415 49.2273C31.0097 51.4511 32.6458 52.8392 34.9656 53.6318C36.9249 54.3011 40.2497 54.4711 42.3161 54.1909C43.5867 54.0187 44.9246 53.6519 46.0745 53.087C46.6975 52.781 47.316 52.4233 47.8468 51.9727C49.2478 50.7835 50.2572 48.8904 50.9986 47.2344C51.182 46.8247 51.4481 46.4383 51.5851 46.011C51.6295 45.8721 51.6758 45.6746 51.595 45.5415C51.5615 45.4863 51.5272 45.4997 51.4689 45.4912C51.2856 45.5626 51.1812 45.692 51.0772 45.8555C50.7695 46.339 50.533 46.9013 50.2723 47.4122C49.5285 48.8696 48.636 50.5439 47.347 51.5843C46.707 52.1009 45.9703 52.484 45.2081 52.7862C42.3783 53.9082 39.3501 53.6864 36.3917 53.3742C33.7293 50.3679 32.5567 47.6317 31.8424 43.7081C33.3751 44.3884 35.0305 44.7295 36.6943 44.8874C38.0607 45.01 39.4295 45.0531 40.8009 45.0168C44.2835 44.9474 46.9652 44.4376 50.1021 42.8742C51.0454 42.4041 51.9977 41.8972 52.8136 41.2239C52.9683 40.8021 53.0574 40.34 53.1692 39.9034C53.377 39.1023 53.5792 38.2997 53.7756 37.4956C53.8442 37.0688 53.987 36.6433 54.1013 36.2262C54.2326 35.7361 54.3546 35.2436 54.4672 34.7488L56.4849 26.5548C56.5549 27.82 56.4128 29.1261 56.3311 30.391C56.1751 32.8085 55.8392 35.2053 55.4716 37.5982C55.2033 39.3444 54.9721 41.1505 54.3656 42.8196C53.6977 44.6576 52.7213 46.309 51.7056 47.9719C50.7702 49.5036 49.827 50.9637 48.4649 52.1568C48.0409 52.5283 47.6034 52.8896 47.1242 53.1883C45.6651 54.0976 43.7092 54.7277 42.0056 54.9276C40.7928 55.0701 39.5236 55.0349 38.3075 54.9517C35.6189 54.7679 32.5928 53.6847 30.7998 51.602C30.4844 51.2356 30.2021 50.8293 29.9141 50.4409C28.7652 48.8919 27.7703 47.2825 26.8755 45.5757C26.5345 44.9255 26.1897 44.2806 25.926 43.5938C25.0079 41.2019 24.6824 38.6134 24.3042 36.093C23.9677 33.8519 23.6838 31.6436 23.552 29.3783C23.4888 28.2921 23.4324 27.2021 23.5077 26.1147Z" fill="#FEFEFE"/>
<path d="M37.6282 48.562C38.4508 48.5681 39.2693 48.6205 40.0936 48.6111C40.2909 48.6088 40.9778 48.5474 41.1391 48.6083C41.164 48.6177 41.1822 48.6396 41.2039 48.6552C41.2575 48.7669 41.2448 48.8291 41.2229 48.945C40.7557 48.9765 37.9359 49.0815 37.6693 48.9236C37.6351 48.9033 37.6088 48.872 37.5785 48.8462C37.5607 48.7169 37.5819 48.6809 37.6282 48.562Z" fill="#010101"/>
<path d="M53.7757 37.4952C53.8914 37.2129 54.0169 36.9145 54.3246 36.7957C54.3437 36.7882 54.3632 36.7818 54.3831 36.7764C54.4029 36.771 54.423 36.7667 54.4433 36.7635C54.4636 36.7603 54.484 36.7581 54.5046 36.7571C54.5251 36.756 54.5457 36.7561 54.5662 36.7573C54.5867 36.7585 54.6071 36.7607 54.6274 36.764C54.6477 36.7674 54.6678 36.7718 54.6876 36.7772C54.7074 36.7828 54.7269 36.7893 54.746 36.7968C54.7651 36.8044 54.7838 36.813 54.802 36.8225C54.9914 36.9197 55.1169 37.1077 55.1782 37.3075C55.2435 37.5207 55.218 37.7386 55.1949 37.9561C55.1161 38.2036 55.0096 38.4571 54.7612 38.5772C54.6188 38.646 54.4569 38.6425 54.3111 38.5852C54.085 38.4964 53.9168 38.2931 53.83 38.0704C53.759 37.8882 53.77 37.6873 53.7757 37.4952Z" fill="#010101"/>
<path d="M54.4473 37.2729C54.4835 37.284 54.5102 37.2902 54.544 37.3114C54.5551 37.3183 54.5658 37.3256 54.5762 37.3335C54.5865 37.3414 54.5965 37.3498 54.606 37.3587C54.6155 37.3676 54.6246 37.377 54.6332 37.3867C54.6418 37.3965 54.65 37.4067 54.6576 37.4172C54.6652 37.4278 54.6723 37.4388 54.6788 37.4501C54.6853 37.4613 54.6913 37.4729 54.6967 37.4847C54.7021 37.4966 54.7069 37.5087 54.7112 37.5211C54.7154 37.5334 54.719 37.5459 54.7219 37.5586C54.7661 37.7464 54.6865 37.9058 54.5793 38.0529C54.4869 38.0457 54.4703 38.0323 54.3927 37.9794C54.2796 37.7499 54.3855 37.5054 54.4473 37.2729Z" fill="#FEFEFE"/>
<path d="M43.8557 47.3984L43.9646 47.4016C44.0564 47.4721 44.0554 47.4741 44.0835 47.5869C44.0595 47.6503 44.0571 47.6885 44.0006 47.7318C43.7909 47.8923 43.1909 47.887 42.9137 47.9155C40.7734 48.1363 38.6898 48.1871 36.5555 47.8766C36.4331 47.8564 36.334 47.8469 36.2323 47.7689C36.1991 47.6834 36.2068 47.6348 36.2218 47.5455C36.2445 47.5252 36.2627 47.4984 36.2898 47.4846C36.4036 47.427 37.6007 47.603 37.8198 47.6222C39.8303 47.7977 41.8606 47.6731 43.8557 47.3984Z" fill="#010101"/>
<path d="M32.7608 28.5718C33.7562 28.512 34.7826 28.5611 35.7795 28.5892C37.1023 28.6247 38.4252 28.6523 39.7482 28.6719C41.7827 28.6876 43.8207 28.5371 45.8542 28.5768C46.6311 28.596 47.4063 28.6442 48.1796 28.7214C48.9529 28.7986 49.7223 28.9045 50.4877 29.0393C50.5177 29.1924 50.5442 29.3461 50.5672 29.5004C50.9735 32.2018 50.3757 36.3474 49.1482 38.7925C48.9387 39.2098 48.6717 39.58 48.3957 39.9543C48.7329 39.7662 49.0312 39.5343 49.3372 39.3009C49.1704 40.1944 48.7941 40.8828 48.3205 41.6461C47.8475 41.8398 47.3691 42.0191 46.8854 42.184C46.3301 42.3716 45.7645 42.5199 45.1887 42.6288C43.6184 42.9315 42.0336 42.9159 40.4412 42.9144C38.3326 42.9123 36.0918 42.9081 34.0236 42.4471C33.0705 42.2347 32.0901 41.8796 31.2783 41.3287C31.0308 40.6372 30.889 39.8882 30.7134 39.1746C30.9791 39.3402 31.254 39.4908 31.5269 39.6442C31.2419 38.9932 30.7929 38.4204 30.4759 37.7832C30.1501 37.1283 30.0087 36.396 29.8358 35.6904C29.2815 33.429 28.897 31.2204 29.6659 28.9528C30.6672 28.706 31.7338 28.6273 32.7608 28.5718Z" fill="#FEFEFE"/>
<path d="M40.3372 34.1191L40.476 34.1625C40.5572 34.4533 40.5229 34.8316 40.5381 35.1361C40.5602 35.5854 40.6236 36.0287 40.7283 36.4661C40.8237 36.8495 41.3354 37.821 41.339 37.9463L41.2589 37.942C40.7283 37.4991 40.4023 36.8491 40.2477 36.1856C40.12 35.638 40.0236 34.6179 40.3372 34.1191Z" fill="#010101"/>
<path d="M37.4897 40.5926C37.8049 40.5719 38.1205 40.5548 38.414 40.6914C38.7051 40.8269 39.3436 41.1885 39.4334 41.5096C39.4484 41.5631 39.4235 41.5794 39.3983 41.6233C39.2207 41.6577 38.873 41.533 38.6905 41.4908C37.7817 41.2803 37.765 41.4281 36.9179 41.4617C36.8176 41.3917 36.8038 41.3806 36.7554 41.2692C36.7601 41.1653 36.7789 41.0956 36.8329 41.0078C36.9995 40.7371 37.202 40.6713 37.4897 40.5926Z" fill="#010101"/>
<path d="M37.2617 38.5527L37.3256 38.5659C37.3063 38.7396 36.9263 39.065 36.817 39.2349C36.519 39.6976 36.2566 40.4158 36.384 40.9659C36.519 41.5489 37.2809 41.9717 37.7513 42.2746L37.7427 42.288L37.8055 42.318C37.7038 42.3324 37.5737 42.2998 37.4706 42.2856C37.2769 42.2471 37.082 42.2109 36.8994 42.1334C36.4845 41.9571 36.1431 41.6354 35.9863 41.2081C35.7915 40.6777 35.921 40.0669 36.1599 39.5712C36.3936 39.0866 36.7499 38.7331 37.2617 38.5527Z" fill="#010101"/>
<path d="M45.8661 33.6812C46.0393 33.6635 46.2053 33.6652 46.371 33.7244C46.6527 33.8249 46.889 34.0221 47.0066 34.3012C47.109 34.5442 47.0983 34.8142 46.9874 35.052C46.8349 35.379 46.5635 35.5438 46.2336 35.6547C46.0718 35.6669 45.9122 35.6742 45.7562 35.622C45.4807 35.5299 45.2563 35.3427 45.1382 35.0748C45.0313 34.8322 45.0211 34.5459 45.1212 34.2994C45.2657 33.9434 45.5317 33.8138 45.8661 33.6812Z" fill="#010101"/>
<path d="M33.8052 33.5261C34.0083 33.5202 34.2118 33.5485 34.3974 33.6336C34.431 33.6489 34.4637 33.666 34.4955 33.6847C34.5274 33.7034 34.5581 33.7238 34.5878 33.7457C34.6176 33.7676 34.6461 33.7909 34.6734 33.8158C34.7007 33.8407 34.7266 33.8669 34.7512 33.8944C34.7758 33.9219 34.7989 33.9507 34.8205 33.9806C34.8422 34.0106 34.8622 34.0415 34.8806 34.0735C34.8991 34.1055 34.9158 34.1383 34.9308 34.1721C34.9458 34.2058 34.9591 34.2402 34.9705 34.2753C35.0491 34.5221 35.0348 34.8013 34.9085 35.0299C34.7517 35.3137 34.502 35.4365 34.2004 35.5162C33.9566 35.5225 33.7502 35.5069 33.5288 35.3936C33.262 35.2572 33.0539 35.0202 32.9722 34.7302C32.9635 34.6999 32.9565 34.6692 32.9511 34.6382C32.9456 34.6072 32.9418 34.576 32.9397 34.5445C32.9375 34.5131 32.937 34.4816 32.938 34.4501C32.9392 34.4186 32.942 34.3873 32.9463 34.3561C32.9507 34.3249 32.9567 34.294 32.9644 34.2634C32.972 34.2328 32.9812 34.2028 32.992 34.1732C33.0027 34.1435 33.0149 34.1146 33.0287 34.0862C33.0426 34.0579 33.0578 34.0304 33.0745 34.0036C33.2391 33.7392 33.5123 33.5985 33.8052 33.5261Z" fill="#010101"/>
<path d="M42.5354 39.0947C42.7783 39.1468 42.988 39.2367 43.1977 39.3679C43.5251 39.5727 43.8147 39.8588 43.8939 40.2505C43.9556 40.5555 43.8826 40.8532 43.7131 41.1108C43.2744 41.7772 42.4053 42.0918 41.6574 42.2295C42.0902 41.9603 42.5063 41.7061 42.8825 41.3589C42.6575 41.3238 42.432 41.2925 42.2059 41.265C41.7487 41.2125 41.3327 41.5163 40.903 41.6193C40.8006 41.6438 40.7522 41.6432 40.6622 41.5918C40.6462 41.5457 40.6397 41.5362 40.6379 41.4818C40.6297 41.2423 40.902 40.99 41.0743 40.8557C41.3833 40.6148 41.7966 40.4633 42.1909 40.5286C42.6033 40.5969 42.838 40.8442 43.0627 41.1702C43.187 40.9471 43.2686 40.74 43.3424 40.497C43.1847 39.8361 42.9302 39.6425 42.5585 39.1272L42.5354 39.0947Z" fill="#010101"/>
<path d="M32.4487 28.8799C33.2718 28.8878 34.1031 29.0043 34.9241 29.0691C36.6318 29.2038 38.3763 29.3318 40.089 29.3271C41.5157 29.3129 42.941 29.2619 44.365 29.174C45.7158 29.0822 47.076 28.9333 48.4306 28.995L47.9833 29.1203C46.9718 29.35 45.9795 29.4772 44.9446 29.5432C43.2671 29.6501 41.56 29.5637 39.8791 29.5504C37.658 29.5327 35.4486 29.7148 33.2531 29.2533C32.9575 29.1912 32.614 29.1401 32.353 28.9842L32.3486 28.9274L32.4487 28.8799Z" fill="#010101"/>
<path d="M32.3532 30.9453C33.2838 30.8718 34.2224 31.0677 35.1438 31.1781C35.934 31.2729 36.728 31.331 37.5183 31.4247C37.4941 31.6517 37.4579 31.8784 37.4263 32.1046C37.9157 32.0526 38.3318 31.8189 38.8045 31.7026C38.623 32.0833 38.4838 32.489 38.2682 32.852C37.5704 33.1937 36.8157 33.1701 36.0581 33.164C34.3695 33.1306 32.7362 32.6869 31.0595 32.5576C30.6807 32.5283 30.2932 32.5208 29.915 32.5626C29.7493 32.581 29.4891 32.6637 29.3322 32.6119C29.3114 32.5501 29.2902 32.5283 29.3132 32.4626C29.3657 32.3123 29.5075 32.2091 29.6281 32.1129C30.1167 31.7234 30.6422 31.5314 31.236 31.3594C31.5029 31.2822 31.793 31.2122 32.037 31.0767C32.1429 31.0179 32.2369 30.979 32.3532 30.9453Z" fill="#010101"/>
<path d="M47.0962 30.9539C47.6097 30.8906 48.1006 30.9616 48.5694 31.1773C48.879 31.3198 50.384 31.9725 50.4713 32.2802C50.4891 32.343 50.4565 32.3641 50.4257 32.4157C49.8583 32.751 48.8897 32.5411 48.2359 32.5911C47.6467 32.6364 47.0371 32.8035 46.4526 32.9027C45.6833 33.0333 44.9128 33.1028 44.1352 33.1621C43.4993 33.1741 42.4843 33.2818 41.9279 32.9538C41.5062 32.7054 41.3001 32.0432 41.1709 31.5965C41.4251 31.6912 42.0182 32.0471 42.2161 32.0654C42.3243 32.0754 42.3384 32.0544 42.4118 31.9863C42.4772 31.8136 42.43 31.6225 42.4075 31.4433C42.9425 31.3572 43.5025 31.3336 44.0424 31.2778L47.0962 30.9539Z" fill="#010101"/>
<path d="M38.9937 8.02384C40.7072 7.79036 43.3422 8.38688 44.929 9.0354C44.7211 9.01696 44.4244 8.94001 44.226 9.00595C44.1162 9.04251 44.1015 9.07509 44.0519 9.17001C44.0541 9.22392 44.0521 9.29329 44.0796 9.34181C44.2183 9.58618 46.109 10.1204 46.4412 10.1907C46.7983 10.2663 46.718 10.0568 46.9034 9.94102C48.2415 10.6061 49.5439 11.608 50.6497 12.608C50.7574 12.7042 50.8639 12.8017 50.9691 12.9005C51.0744 12.9993 51.1785 13.0995 51.2812 13.2009C51.384 13.3024 51.4855 13.4051 51.5856 13.5092C51.6858 13.6132 51.7847 13.7184 51.8822 13.8249C51.9798 13.9313 52.076 14.039 52.1708 14.1479C52.2657 14.2568 52.3591 14.3669 52.4512 14.4781C52.5434 14.5893 52.6341 14.7017 52.7233 14.8152C52.8126 14.9287 52.9004 15.0433 52.9869 15.159C53.0733 15.2747 53.1582 15.3914 53.2417 15.5092C53.3252 15.6271 53.4072 15.746 53.4876 15.8659C53.5682 15.9857 53.6472 16.1066 53.7247 16.2284C53.8021 16.3503 53.878 16.4731 53.9524 16.5969C54.0268 16.7207 54.0997 16.8454 54.1709 16.9709C54.2422 17.0965 54.3119 17.223 54.38 17.3503C54.4481 17.4777 54.5146 17.6058 54.5795 17.7349C54.6444 17.8639 54.7077 17.9937 54.7693 18.1242C54.8309 18.2549 54.8909 18.3862 54.9493 18.5183C55.0076 18.6504 55.0643 18.7832 55.1193 18.9167C55.1743 19.0502 55.2277 19.1844 55.2793 19.3192C55.3309 19.4541 55.3809 19.5896 55.4292 19.7257C55.4774 19.8618 55.524 19.9985 55.5688 20.1357C55.6137 20.273 55.6567 20.4108 55.6981 20.5491C55.7395 20.6875 55.7792 20.8264 55.8171 20.9657C55.855 21.105 55.8911 21.2448 55.9255 21.3851C55.9599 21.5253 55.9925 21.666 56.0234 21.807C56.0543 21.9481 56.0834 22.0896 56.1108 22.2313C56.1381 22.3732 56.1636 22.5153 56.1874 22.6577C56.2112 22.8001 56.2331 22.9428 56.2533 23.0859C56.2735 23.2288 56.2919 23.372 56.3085 23.5155C56.3251 23.659 56.3399 23.8026 56.353 23.9464C56.3659 24.0902 56.3771 24.2342 56.3865 24.3783C56.3959 24.5224 56.4035 24.6666 56.4093 24.8109C55.5874 24.2534 54.7691 23.6923 53.8701 23.2638C49.8114 21.3295 44.3542 21.1195 39.926 21.1125C35.5442 21.1795 29.5757 21.593 25.5934 23.5594C24.8597 23.9217 24.208 24.3944 23.5483 24.8731C23.67 24.2135 23.6987 23.5325 23.7879 22.8675C23.8271 22.5797 23.8746 22.2933 23.9304 22.0083C23.9862 21.7232 24.0502 21.4401 24.1224 21.1588C24.1946 20.8774 24.275 20.5984 24.3633 20.3217C24.4517 20.0451 24.5481 19.7712 24.6523 19.5001C26.3582 14.9317 30.0497 11.2796 34.45 9.27727C34.193 9.47001 33.4191 9.95251 33.4086 10.2813C33.4053 10.383 33.449 10.4208 33.51 10.4918C33.5254 10.496 33.5404 10.5017 33.5561 10.5045C33.9187 10.5695 34.642 9.90149 34.9718 9.72431C35.7154 9.3247 36.57 9.08556 37.3651 8.80977C37.5603 8.74204 37.7272 8.71391 37.8242 8.51399C37.8309 8.3786 37.752 8.27681 37.6863 8.16431C38.1211 8.10509 38.5569 8.06454 38.9937 8.02384Z" fill="#FEFEFE"/>
<path d="M26.4276 17.6086C26.5309 17.6061 26.6 17.6251 26.6972 17.655C26.7341 17.6967 26.7742 17.723 26.7799 17.7817C26.7823 17.806 26.7828 17.8306 26.7809 17.855C26.7688 18.0025 26.652 18.2082 26.5902 18.3432C26.1688 19.2645 25.776 20.1622 25.4566 21.1264C25.3082 21.5743 25.2942 22.2751 25.0045 22.641C24.8927 22.6403 24.7969 22.631 24.687 22.6102C24.5855 22.5242 24.5577 22.4538 24.5482 22.3201C24.4724 21.2532 25.7227 18.4257 26.4276 17.6086Z" fill="#010101"/>
<path d="M45.0697 10.0679C45.7558 10.0776 46.5904 10.5716 47.1639 10.9096C47.7109 11.2319 49.7122 12.669 49.8285 13.3226C49.8498 13.4422 49.7843 13.508 49.72 13.5963C49.4642 13.6337 49.3529 13.6431 49.1608 13.4579C48.4803 12.8019 47.8353 12.0967 47.0209 11.5957C46.4851 11.2661 45.8967 11.0352 45.3454 10.7366C45.1792 10.6465 45.0117 10.5665 44.9541 10.3751C44.9581 10.2408 44.9958 10.1784 45.0697 10.0679Z" fill="#010101"/>
<path d="M30.7331 12.5327C30.8162 12.5267 30.8919 12.5391 30.9706 12.568C31.0688 12.6042 31.0955 12.6507 31.1332 12.7423C31.0876 13.1684 30.3993 13.607 30.0983 13.8891C29.9323 14.0447 29.7856 14.2195 29.6398 14.3938C28.7762 15.4259 28.2136 16.7688 27.6604 17.987C27.4824 18.3791 27.3256 18.7877 27.1113 19.1616C27.0537 19.1716 26.9899 19.1702 26.9313 19.1736C26.8739 19.1459 26.8259 19.1368 26.7913 19.0798C26.727 18.9738 26.7432 18.8471 26.7641 18.7302C26.8681 18.147 27.1585 17.5523 27.3993 17.0136C28.2107 15.1976 29.0583 13.7109 30.7331 12.5327Z" fill="#010101"/>
<path d="M50.7027 15.1016C51.0247 15.1226 51.3543 15.2812 51.6286 15.446C53.155 16.3632 54.185 18.5748 54.8675 20.18C55.0639 20.6423 55.2954 21.1355 55.4068 21.6263C55.4461 21.7996 55.4289 21.8685 55.3325 22.0173C55.249 22.0419 55.174 22.0672 55.0855 22.0618C55.0067 22.057 54.9579 22.004 54.9179 21.9392C54.736 21.6455 54.6147 21.2783 54.4768 20.9605C54.266 20.4711 54.0424 19.9877 53.8057 19.5102C53.2622 18.4014 52.6471 17.3139 51.8073 16.3991C51.544 16.1123 50.8786 15.6146 50.7114 15.3657C50.6539 15.2799 50.688 15.1954 50.7027 15.1016Z" fill="#010101"/>
</g>
<defs>
<clipPath id="clip0_1000_92">
<rect width="80" height="80" fill="white"/>
</clipPath>
</defs>
</svg>
