<svg width="40" height="40" viewBox="0 0 40 40" fill="none" xmlns="http://www.w3.org/2000/svg">
<g clip-path="url(#clip0_1013_122)">
<path d="M18.9995 31.8511C18.8753 31.8619 18.7527 31.8661 18.6285 31.8512C18.1057 31.7888 17.6853 31.4291 17.3741 31.0259C16.4538 29.8336 16.5116 28.2122 16.7011 26.7966C16.7558 26.3884 16.8352 25.9835 16.8865 25.5749C16.9668 24.9368 16.9829 23.827 16.7945 23.2162C16.7814 23.174 16.7664 23.1325 16.7495 23.0917C16.7326 23.0509 16.7139 23.0109 16.6934 22.9718C16.6728 22.9327 16.6506 22.8946 16.6266 22.8575C16.6026 22.8205 16.5769 22.7846 16.5496 22.7498C16.363 22.5139 16.1201 22.4136 15.8278 22.3785C15.2517 22.3093 14.4563 22.4615 13.869 22.545C12.7704 22.7013 11.5952 22.8632 10.4863 22.7346C9.82415 22.6579 8.96317 22.5277 8.52743 21.9679C8.27009 21.6373 8.22486 21.1657 8.27915 20.763C8.34642 20.2638 8.60232 19.8912 8.99857 19.5909C8.82958 19.5401 8.66392 19.4831 8.50454 19.4066C8.12626 19.2253 7.85419 18.9395 7.71712 18.5391C7.55853 18.0759 7.562 17.4862 7.78044 17.0419C8.05067 16.4921 8.59212 16.3079 9.13181 16.1213C9.03091 16.0911 8.92915 16.0618 8.82974 16.027C8.4831 15.9055 8.21587 15.6209 8.05943 15.2941C7.89958 14.9602 7.8504 14.5602 7.97657 14.2074C8.17286 13.6586 8.6029 13.4915 9.0922 13.2553C9.03579 13.2231 8.97778 13.1913 8.92778 13.1495C8.6688 12.9329 8.54634 12.5797 8.52048 12.2521C8.49403 11.9176 8.57915 11.5387 8.80614 11.2837C8.96903 11.1007 9.14919 11.0677 9.34443 10.9492C9.45876 10.8798 9.5454 10.7575 9.64759 10.6707C9.88532 10.4689 10.2533 10.3493 10.5472 10.2613C11.2771 10.0427 12.0412 9.9559 12.7954 9.8666C13.8929 9.7366 14.9947 9.64633 16.0934 9.52816C17.828 9.34164 19.5474 9.06106 21.2926 8.98692C22.1122 8.96965 23.0586 8.92449 23.8283 9.24719C24.2128 9.40844 24.5652 9.63946 24.917 9.86051C25.2109 9.85028 25.8459 9.83383 26.0797 9.68039C26.2293 9.58207 26.3554 9.42496 26.4875 9.30317C26.6278 9.17387 26.7847 9.05098 26.9624 8.97785C27.2626 8.85422 27.5765 8.7661 27.8859 8.66922C28.4621 8.48914 29.0403 8.31548 29.6204 8.14824C30.3104 7.94211 31.5918 7.46559 32.2618 7.44047C32.5656 7.42907 32.8045 7.51262 33.0274 7.71992C32.9868 8.03664 33.0331 8.39324 33.0458 8.71383C33.0689 9.22839 33.0835 9.74318 33.0897 10.2582C33.1349 12.812 33.2445 15.3753 33.2049 17.9294C33.1993 18.2869 33.0399 18.7438 32.779 18.9977C32.3418 19.018 31.9018 19.0104 31.464 19.0236C30.7038 19.0492 29.944 19.0856 29.1848 19.1327C28.6645 19.1642 28.1444 19.1994 27.6245 19.2384C27.2592 19.2639 26.8622 19.3216 26.4991 19.2714C26.2854 19.2419 26.084 19.1012 25.9048 18.9902C25.3712 19.5654 24.7547 20.0521 24.1674 20.5699C23.4529 21.1997 22.784 21.872 22.1106 22.5443C21.6797 22.9744 21.2181 23.3911 20.8536 23.881C20.5591 24.2766 20.3092 24.7314 20.1576 25.2018C19.8843 26.0503 19.8749 27.1366 19.8131 28.0304C19.7684 28.6782 19.6167 31.0286 19.3871 31.5347C19.3097 31.7054 19.1657 31.7848 18.9995 31.8511Z" fill="white"/>
<path d="M9.30463 12.9517C9.29912 12.9453 9.29217 12.9401 9.28818 12.9327C9.15299 12.684 9.0699 12.0717 9.1608 11.8013C9.19807 11.8222 9.20729 11.8277 9.22416 11.8693C9.29268 12.0383 9.35693 12.6159 9.34775 12.8043C9.34522 12.8566 9.3251 12.9042 9.30463 12.9517Z" fill="white"/>
<path d="M14.6099 12.6914L14.5526 12.6696C14.4049 12.4964 14.3587 11.7211 14.365 11.4712C14.4028 11.4876 14.4293 11.5087 14.4563 11.5402C14.6111 11.7208 14.6497 12.4467 14.6099 12.6914Z" fill="white"/>
<path d="M8.7897 15.5146C8.74556 15.4743 8.72396 15.4176 8.70263 15.3623C8.59232 15.0768 8.50798 14.6294 8.63294 14.3414L8.66177 14.3302C8.76248 14.5673 8.85259 15.2689 8.7897 15.5146Z" fill="white"/>
<path d="M15.2282 15.2666L15.1993 15.248C15.1383 15.1294 15.1506 14.7885 15.1328 14.6381C15.1099 14.4443 14.964 13.8037 14.9854 13.6644C14.9916 13.6247 15.0044 13.6259 15.0343 13.6023C15.166 13.7644 15.226 14.0393 15.2644 14.2407C15.3171 14.517 15.3944 15.0202 15.2282 15.2666Z" fill="white"/>
<path d="M9.11664 21.8618C9.06297 21.8321 9.03368 21.7931 9.00286 21.7409C8.82106 21.4328 8.83176 21.03 8.92418 20.6974C8.94133 20.6638 8.95731 20.6443 8.98508 20.6188L9.00172 20.6347C8.99879 21.0337 9.14418 21.4969 9.11664 21.8618Z" fill="white"/>
<path d="M15.6005 21.833C15.5719 21.821 15.5491 21.805 15.5235 21.788C15.4802 21.6858 15.5515 20.2391 15.5549 19.9799C15.5868 19.9332 15.6077 19.94 15.6617 19.9292C15.6879 19.9616 15.7147 19.9953 15.7303 20.0344C15.8539 20.342 15.7427 21.5325 15.6005 21.833Z" fill="white"/>
<path d="M8.52295 18.7075C8.51674 18.7058 8.51029 18.7047 8.50424 18.7025C8.43236 18.6763 8.39096 18.5824 8.36033 18.5175C8.21627 18.2124 8.20717 17.8063 8.31713 17.4917L8.34752 17.4564C8.38178 17.497 8.38885 17.5401 8.39842 17.5911C8.43092 17.7644 8.43096 17.9528 8.44818 18.1295C8.46705 18.3231 8.50072 18.5143 8.52295 18.7075Z" fill="white"/>
<path d="M15.5671 18.4199L15.5162 18.3853C15.4888 18.333 15.4823 18.2898 15.4779 18.2311C15.4583 17.9679 15.4689 17.6968 15.4606 17.4321C15.4513 17.1357 15.4243 16.8388 15.4173 16.543C15.4159 16.4827 15.4149 16.4595 15.4576 16.4163C15.4958 16.4595 15.5196 16.5079 15.5368 16.5626C15.6441 16.9048 15.7323 18.1053 15.5671 18.4199Z" fill="white"/>
<path d="M29.8808 9.95557C29.7316 9.96014 29.6007 9.93261 29.4713 9.85518C29.4527 9.84417 29.4346 9.83224 29.4172 9.8194C29.3998 9.80659 29.3831 9.79294 29.367 9.77846C29.351 9.76396 29.3357 9.7487 29.3211 9.73268C29.3066 9.71669 29.2929 9.7 29.28 9.68261C29.2672 9.66524 29.2552 9.64727 29.2441 9.6287C29.233 9.61013 29.2229 9.59106 29.2137 9.57147C29.2045 9.55189 29.1964 9.5319 29.1892 9.51151C29.182 9.49112 29.1758 9.47042 29.1707 9.4494C29.1275 9.27487 29.1528 9.07628 29.2514 8.92444C29.3786 8.72866 29.5744 8.66046 29.7901 8.61135C29.9609 8.6085 30.1209 8.64151 30.2639 8.73921C30.4046 8.83538 30.5065 8.98315 30.5359 9.15202C30.5396 9.1746 30.5422 9.19732 30.5436 9.22018C30.545 9.24302 30.5453 9.26587 30.5444 9.28874C30.5435 9.31163 30.5415 9.3344 30.5383 9.35706C30.5351 9.37972 30.5308 9.40216 30.5253 9.4244C30.5199 9.44664 30.5133 9.46854 30.5057 9.49011C30.498 9.51167 30.4892 9.53279 30.4795 9.55346C30.4696 9.57417 30.4588 9.59431 30.447 9.6139C30.4351 9.63348 30.4223 9.65242 30.4086 9.67073C30.2745 9.85104 30.0948 9.92217 29.8808 9.95557Z" fill="white"/>
<path d="M27.7772 17.3989C27.7408 17.389 27.721 17.3788 27.6917 17.3551C27.6169 17.1723 27.6681 15.6994 27.6708 15.3933C27.6861 14.2873 27.6793 13.1814 27.6505 12.0756C27.6367 11.4283 27.5927 10.7717 27.6076 10.125C27.6097 10.0308 27.6055 9.93834 27.6768 9.86947C27.7229 9.88127 27.7192 9.88498 27.7448 9.926C27.8632 10.4278 27.8986 10.9606 27.9384 11.4735C27.9899 12.0998 28.0204 12.7271 28.0299 13.3554C28.0395 13.9838 28.0281 14.6117 27.9956 15.2393C27.964 15.9554 27.9203 16.6958 27.7772 17.3989Z" fill="white"/>
<path d="M19.5875 24.4224L19.5559 24.3919C19.5449 24.3453 19.5515 24.3101 19.5655 24.2653C19.7481 23.6813 20.5896 22.7133 21.1177 22.4319C21.1414 22.4644 21.1602 22.4852 21.167 22.5259C21.1794 22.6008 21.07 22.6585 21.0197 22.6966C20.4074 23.1605 20.0011 23.7913 19.5875 24.4224Z" fill="white"/>
</g>
<defs>
<clipPath id="clip0_1013_122">
<rect x="40" y="40" width="40" height="40" rx="20" transform="rotate(-180 40 40)" fill="white"/>
</clipPath>
</defs>
</svg>
