<svg width="71" height="70" viewBox="0 0 71 70" fill="none" xmlns="http://www.w3.org/2000/svg">
<g clip-path="url(#clip0_181_91)">
<path fill-rule="evenodd" clip-rule="evenodd" d="M25.3258 60.5777L18.6722 53.9298H14.0921C12.4914 53.9298 11.1812 52.6195 11.1812 51.0188V46.0627H8.4069V51.8619C8.4069 53.0981 7.3929 54.1121 6.15674 54.1121H2.75016C1.514 54.1121 0.5 53.0981 0.5 51.8619V32.2086C0.5 30.9724 1.514 29.9584 2.75016 29.9584H6.15674C7.3929 29.9584 8.4069 30.9724 8.4069 32.2086V38.0077H11.1812V32.6757C11.1812 31.075 12.4914 29.7647 14.0921 29.7647H18.957L25.8328 22.456C26.6304 21.761 27.6899 21.516 28.9261 21.5673H57.2554C58.2352 21.6755 58.9814 22.0515 59.4372 22.7579C59.8929 23.4529 59.8188 23.8459 59.8188 24.6264V38.0077H62.5931V32.2086C62.5931 30.9724 63.6071 29.9584 64.8433 29.9584H68.2498C69.486 29.9584 70.5 30.9724 70.5 32.2086V51.8619C70.5 53.0981 69.486 54.1121 68.2498 54.1121H64.8433C63.6071 54.1121 62.5931 53.0981 62.5931 51.8619V46.0627H59.8188V46.5868C59.8188 48.142 59.8644 49.0819 58.8732 50.3694C58.6852 50.6143 58.4744 50.8479 58.2409 51.0644L48.0838 61.0107C47.5768 61.5746 46.8078 61.8822 45.7938 61.9392H28.4761C27.1829 61.8822 26.1291 61.4379 25.3258 60.5777ZM36.7931 43.2486L29.5926 42.5707L35.5627 29.4913H43.7259L39.0946 36.9937L47.423 37.9166L32.1333 56.2711L36.7931 43.2486ZM30.111 8.05493H49.7643C51.0005 8.05493 52.0145 9.06893 52.0145 10.3051V13.7117C52.0145 14.9478 51.0005 15.9618 49.7643 15.9618H43.9652V18.8272H35.9102V15.9618H30.111C28.8748 15.9618 27.8608 14.9478 27.8608 13.7117V10.3051C27.8608 9.06893 28.8748 8.05493 30.111 8.05493Z" fill="#97C8DF"/>
</g>
<defs>
<clipPath id="clip0_181_91">
<rect width="70" height="70" fill="white" transform="translate(0.5)"/>
</clipPath>
</defs>
</svg>
