<svg width="40" height="40" viewBox="0 0 40 40" fill="none" xmlns="http://www.w3.org/2000/svg">
<path d="M19.9999 2.3999C10.2892 2.3999 2.3999 10.2892 2.3999 19.9999C2.3999 28.8152 8.90193 36.1106 17.3702 37.3827L18.289 37.5218V23.653H14.1312V20.8374H18.289V17.0983C18.289 14.7959 18.8415 13.2794 19.7562 12.328C20.6708 11.3766 22.0223 10.8968 23.903 10.8968C25.4069 10.8968 25.9919 10.9879 26.5483 11.0562V13.3608H24.5905C23.4797 13.3608 22.5683 13.9806 22.0952 14.8062C21.6222 15.6317 21.4749 16.6174 21.4749 17.6218V20.8358H26.3733L25.9374 23.6515H21.4749V37.5437L22.3827 37.4202C30.9714 36.2554 37.5999 28.9014 37.5999 19.9999C37.5999 10.2892 29.7107 2.3999 19.9999 2.3999ZM19.9999 3.9999C28.846 3.9999 35.9999 11.1539 35.9999 19.9999C35.9999 27.7837 30.4285 34.1853 23.0749 35.6265V25.2515H27.3093L28.239 19.2358H23.0749V17.6218C23.0749 16.7918 23.2268 16.0481 23.4827 15.6015C23.7387 15.1548 23.9854 14.9608 24.5905 14.9608H28.1483V9.60772L27.4546 9.51397C26.9748 9.44904 25.8793 9.29678 23.903 9.29678C21.7405 9.29678 19.8844 9.88586 18.603 11.2187C17.3217 12.5514 16.689 14.536 16.689 17.0983V19.2374H12.5312V25.253H16.689V35.5765C9.4535 34.0438 3.9999 27.6995 3.9999 19.9999C3.9999 11.1539 11.1539 3.9999 19.9999 3.9999Z" fill="white"/>
</svg>
