<svg width="40" height="40" viewBox="0 0 40 40" fill="none" xmlns="http://www.w3.org/2000/svg">
<path d="M20.7999 1.6001C10.6468 1.6001 2.3999 9.84697 2.3999 20.0001C2.3999 30.1532 10.6468 38.4001 20.7999 38.4001C28.7343 38.4001 33.578 34.7501 36.0999 30.2251C38.6218 25.7001 38.9405 20.3845 38.1749 16.7501L38.0249 16.1251H37.3999L20.7999 16.1001H19.9999V24.4251H29.1499C27.7687 27.6251 24.9562 29.8251 20.7999 29.8251C15.3687 29.8251 10.9749 25.4313 10.9749 20.0001C10.9749 14.5688 15.3687 10.1751 20.7999 10.1751C23.2405 10.1751 25.4562 11.0782 27.1749 12.5501L27.7499 13.0251L33.2249 7.5501L33.7999 6.9501L33.1999 6.4001C29.9312 3.42197 25.5687 1.6001 20.7999 1.6001ZM20.7999 3.2001C24.8593 3.2001 28.5218 4.68447 31.4249 7.0751L27.5749 10.9251C25.6718 9.50322 23.3593 8.5751 20.7999 8.5751C14.503 8.5751 9.3749 13.7032 9.3749 20.0001C9.3749 26.297 14.503 31.4251 20.7999 31.4251C26.0405 31.4251 29.8093 28.2126 31.1499 23.8501L31.4749 22.8251H21.5999V17.7001L36.6749 17.7251C37.2062 20.9532 36.853 25.5876 34.6999 29.4501C32.4124 33.5501 28.2562 36.8001 20.7999 36.8001C11.5093 36.8001 3.9999 29.2876 3.9999 20.0001C3.9999 10.7126 11.5093 3.2001 20.7999 3.2001Z" fill="white"/>
</svg>
