<svg width="40" height="40" viewBox="0 0 40 40" fill="none" xmlns="http://www.w3.org/2000/svg">
<g clip-path="url(#clip0_1013_153)">
<path d="M25.9293 7.86328L25.9579 7.88375C25.9727 7.91285 25.9742 7.92785 25.9723 7.96074C25.9522 8.31582 25.8938 8.67547 25.8561 9.02957C25.832 9.25648 25.8308 9.49469 25.794 9.71887C25.7854 9.77148 25.7757 9.81523 25.7236 9.84137C25.6679 9.86934 25.5981 9.85516 25.5398 9.84574C25.5104 9.81852 25.4767 9.7859 25.46 9.74898C25.4163 9.65242 25.4958 9.51723 25.5383 9.43008C25.7352 9.02664 25.7518 8.31613 25.9293 7.86328Z" fill="white"/>
<path d="M31.2566 14.6279C31.528 14.655 31.7973 14.6815 32.0701 14.6923C32.4605 14.7076 32.8477 14.7023 33.2343 14.7687C33.1392 14.7996 33.0583 14.8176 32.9589 14.8273C32.6102 14.8782 32.2525 14.8765 31.9013 14.9042C31.7133 14.9191 31.512 14.9716 31.3248 14.9606C31.2848 14.9582 31.2313 14.9393 31.2022 14.9103C31.1695 14.8779 31.1609 14.8431 31.1611 14.7991C31.1615 14.7245 31.2062 14.6768 31.2566 14.6279Z" fill="white"/>
<path d="M31.969 11.4258L31.9899 11.4749C31.9838 11.4873 31.9812 11.5021 31.9715 11.512C31.8611 11.6243 31.1661 12.0248 30.9874 12.1395C30.8132 12.2512 30.6499 12.3787 30.476 12.4906C30.409 12.5338 30.3712 12.5345 30.2947 12.5182C30.2584 12.4806 30.2286 12.4449 30.2152 12.3932C30.2047 12.3524 30.2124 12.3196 30.2309 12.2836C30.2529 12.2407 30.2826 12.2277 30.3245 12.2052C30.5253 12.0975 30.7441 12.0107 30.9494 11.9098C31.2756 11.7497 31.6263 11.5347 31.969 11.4258Z" fill="white"/>
<path d="M29.0751 8.54688C29.1138 8.57563 29.1058 8.57027 29.1173 8.61215C28.9574 9.04918 28.7101 9.47613 28.5201 9.90348C28.4701 10.0157 28.3828 10.3139 28.3069 10.393C28.2523 10.4498 28.1641 10.433 28.0946 10.4254C28.062 10.3839 28.0208 10.3355 28.0113 10.2815C28.0095 10.2712 28.0099 10.2329 28.0137 10.2204C28.0489 10.1043 28.2439 9.87754 28.316 9.76523C28.5518 9.39852 28.8152 8.86937 29.0751 8.54688Z" fill="white"/>
<path d="M16.9229 14.9823C16.9573 14.9818 16.991 14.9799 17.0231 14.995C17.0876 15.0254 17.1252 15.0931 17.1487 15.1566C17.1433 15.1884 17.1457 15.2105 17.1229 15.2354C17.0709 15.2925 16.9899 15.3168 16.9158 15.3286C16.733 15.3577 16.5336 15.3427 16.348 15.3484C15.996 15.3596 15.6442 15.3748 15.2926 15.3939C15.2629 15.397 15.2332 15.3999 15.2035 15.4025C15.1351 15.4082 15.0918 15.4105 15.0386 15.3651C15.0726 15.3259 15.0999 15.3199 15.1493 15.3096C15.7391 15.1859 16.3358 15.1348 16.9229 14.9823Z" fill="white"/>
<path d="M17.6057 6.53271C17.7637 6.60916 18.3773 7.43908 18.5481 7.63436C18.6645 7.76744 18.848 7.90658 18.9378 8.05404C18.9794 8.12236 18.9455 8.20963 18.9238 8.2783C18.8714 8.29482 18.8275 8.30377 18.7722 8.29928C18.7207 8.29506 18.6855 8.27682 18.6532 8.23748C18.476 8.02119 18.2503 7.61803 18.0895 7.37178C17.9404 7.1435 17.7441 6.90396 17.6214 6.66264C17.5948 6.61021 17.6 6.58975 17.6057 6.53271Z" fill="white"/>
<path d="M16.8476 12.3325C16.896 12.3265 16.9361 12.3236 16.9782 12.3536C17.0285 12.3892 17.0617 12.4525 17.0603 12.5142C17.0592 12.5627 17.0355 12.617 16.9999 12.65C16.9609 12.6863 16.915 12.6969 16.8633 12.6991C16.7187 12.7052 16.542 12.6563 16.3959 12.6395C16.027 12.6009 15.6578 12.5656 15.2883 12.5337C15.1128 12.5218 14.9467 12.5122 14.7803 12.451C15.0398 12.3971 15.318 12.4075 15.5823 12.402C16.0058 12.3931 16.427 12.3855 16.8476 12.3325Z" fill="white"/>
<path d="M15.6504 9.21973C15.6768 9.22395 15.6747 9.22305 15.7055 9.23145C15.9759 9.30508 16.5269 9.62785 16.8079 9.76371C16.9883 9.85098 17.1853 9.91469 17.3603 10.0105C17.4098 10.0376 17.4456 10.0694 17.4698 10.122C17.5028 10.1937 17.4706 10.2556 17.4426 10.322C17.4063 10.3343 17.3634 10.3513 17.325 10.3543C17.2074 10.3635 15.8887 9.47805 15.7315 9.34793C15.6775 9.3032 15.6582 9.29047 15.6504 9.21973Z" fill="white"/>
<path d="M21.0005 8.14891C21.1247 8.13809 21.2473 8.13395 21.3715 8.14879C21.8943 8.21121 22.3147 8.57086 22.6259 8.97406C23.5462 10.1664 23.4884 11.7878 23.2989 13.2034C23.2442 13.6116 23.1648 14.0165 23.1135 14.4251C23.0332 15.0632 23.0171 16.173 23.2055 16.7838C23.2186 16.826 23.2336 16.8675 23.2505 16.9083C23.2674 16.9491 23.2861 16.9891 23.3066 17.0282C23.3272 17.0673 23.3494 17.1054 23.3734 17.1425C23.3974 17.1795 23.4231 17.2154 23.4504 17.2502C23.637 17.4861 23.8799 17.5864 24.1722 17.6215C24.7483 17.6907 25.5437 17.5385 26.131 17.455C27.2296 17.2987 28.4048 17.1368 29.5137 17.2654C30.1758 17.3421 31.0368 17.4723 31.4726 18.0321C31.7299 18.3627 31.7751 18.8343 31.7208 19.237C31.6536 19.7362 31.3977 20.1088 31.0014 20.4091C31.1704 20.4599 31.3361 20.5169 31.4955 20.5934C31.8737 20.7747 32.1458 21.0605 32.2829 21.4609C32.4415 21.9241 32.438 22.5138 32.2196 22.9581C31.9493 23.5079 31.4079 23.6921 30.8682 23.8787C30.9691 23.9089 31.0709 23.9382 31.1703 23.973C31.5169 24.0945 31.7841 24.3791 31.9406 24.7059C32.1004 25.0398 32.1496 25.4398 32.0234 25.7926C31.8271 26.3414 31.3971 26.5085 30.9078 26.7447C30.9642 26.7769 31.0222 26.8087 31.0722 26.8505C31.3312 27.0671 31.4537 27.4203 31.4795 27.7479C31.506 28.0824 31.4209 28.4613 31.1939 28.7163C31.031 28.8993 30.8508 28.9323 30.6556 29.0508C30.5412 29.1202 30.4546 29.2425 30.3524 29.3293C30.1147 29.5311 29.7467 29.6507 29.4528 29.7387C28.7229 29.9573 27.9588 30.0441 27.2046 30.1334C26.1071 30.2634 25.0053 30.3537 23.9066 30.4718C22.172 30.6584 20.4526 30.9389 18.7074 31.0131C17.8878 31.0303 16.9414 31.0755 16.1717 30.7528C15.7872 30.5916 15.4348 30.3605 15.083 30.1395C14.7891 30.1497 14.1541 30.1662 13.9203 30.3196C13.7707 30.4179 13.6446 30.575 13.5125 30.6968C13.3722 30.8261 13.2153 30.949 13.0376 31.0221C12.7374 31.1458 12.4235 31.2339 12.1141 31.3308C11.5379 31.5109 10.9597 31.6845 10.3796 31.8518C9.68956 32.0579 8.40823 32.5344 7.73823 32.5595C7.43444 32.5709 7.19546 32.4874 6.97261 32.2801C7.01319 31.9634 6.9669 31.6068 6.95421 31.2862C6.93114 30.7716 6.91651 30.2568 6.91034 29.7418C6.86511 27.188 6.75546 24.6247 6.79511 22.0706C6.80065 21.7131 6.96015 21.2562 7.22104 21.0023C7.65815 20.982 8.09823 20.9896 8.53601 20.9764C9.29624 20.9508 10.056 20.9144 10.8152 20.8673C11.3355 20.8358 11.8556 20.8006 12.3755 20.7616C12.7408 20.7361 13.1378 20.6784 13.5009 20.7286C13.7146 20.7581 13.916 20.8988 14.0952 21.0098C14.6288 20.4346 15.2453 19.9479 15.8326 19.4301C16.5471 18.8003 17.216 18.128 17.8894 17.4557C18.3203 17.0256 18.7819 16.6089 19.1464 16.119C19.4409 15.7234 19.6908 15.2686 19.8424 14.7982C20.1157 13.9497 20.1251 12.8634 20.1869 11.9696C20.2316 11.3218 20.3833 8.97145 20.6129 8.46531C20.6903 8.29457 20.8343 8.2152 21.0005 8.14891Z" fill="white"/>
<path d="M30.6954 27.0483C30.7009 27.0547 30.7078 27.0599 30.7118 27.0673C30.847 27.316 30.9301 27.9283 30.8392 28.1987C30.8019 28.1778 30.7927 28.1723 30.7758 28.1307C30.7073 27.9617 30.6431 27.3841 30.6522 27.1957C30.6548 27.1434 30.6749 27.0958 30.6954 27.0483Z" fill="white"/>
<path d="M25.3901 27.3086L25.4474 27.3304C25.5951 27.5036 25.6413 28.2789 25.635 28.5288C25.5972 28.5124 25.5707 28.4913 25.5437 28.4598C25.3889 28.2792 25.3503 27.5533 25.3901 27.3086Z" fill="white"/>
<path d="M31.2103 24.4854C31.2544 24.5257 31.276 24.5824 31.2974 24.6377C31.4077 24.9232 31.492 25.3706 31.3671 25.6586L31.3382 25.6698C31.2375 25.4327 31.1474 24.7311 31.2103 24.4854Z" fill="white"/>
<path d="M24.7718 24.7334L24.8007 24.752C24.8617 24.8706 24.8494 25.2115 24.8672 25.3619C24.8901 25.5557 25.036 26.1963 25.0146 26.3356C25.0084 26.3753 24.9956 26.3741 24.9657 26.3977C24.834 26.2356 24.774 25.9607 24.7356 25.7593C24.6829 25.483 24.6056 24.9798 24.7718 24.7334Z" fill="white"/>
<path d="M30.8834 18.1382C30.937 18.1679 30.9663 18.2069 30.9971 18.2591C31.1789 18.5672 31.1682 18.97 31.0758 19.3026C31.0587 19.3362 31.0427 19.3557 31.0149 19.3812L30.9983 19.3653C31.0012 18.9663 30.8558 18.5031 30.8834 18.1382Z" fill="white"/>
<path d="M24.3995 18.167C24.4281 18.179 24.4509 18.195 24.4765 18.212C24.5198 18.3142 24.4485 19.7609 24.4451 20.0201C24.4132 20.0668 24.3923 20.06 24.3383 20.0708C24.3121 20.0384 24.2853 20.0047 24.2697 19.9656C24.1461 19.658 24.2573 18.4675 24.3995 18.167Z" fill="white"/>
<path d="M31.4771 21.2925C31.4833 21.2942 31.4897 21.2953 31.4958 21.2975C31.5676 21.3237 31.609 21.4176 31.6397 21.4825C31.7837 21.7876 31.7928 22.1937 31.6829 22.5083L31.6525 22.5436C31.6182 22.503 31.6112 22.4599 31.6016 22.4089C31.5691 22.2356 31.569 22.0472 31.5518 21.8705C31.5329 21.6769 31.4993 21.4857 31.4771 21.2925Z" fill="white"/>
<path d="M24.4329 21.5801L24.4838 21.6147C24.5112 21.667 24.5177 21.7102 24.5221 21.7689C24.5417 22.0321 24.5311 22.3032 24.5394 22.5679C24.5487 22.8643 24.5757 23.1612 24.5827 23.457C24.5841 23.5173 24.5851 23.5405 24.5424 23.5837C24.5042 23.5405 24.4804 23.4921 24.4632 23.4374C24.3559 23.0952 24.2677 21.8947 24.4329 21.5801Z" fill="white"/>
<path d="M10.1192 30.0444C10.2684 30.0399 10.3993 30.0674 10.5287 30.1448C10.5473 30.1558 10.5654 30.1678 10.5828 30.1806C10.6002 30.1934 10.6169 30.2071 10.633 30.2215C10.649 30.236 10.6643 30.2513 10.6789 30.2673C10.6934 30.2833 10.7071 30.3 10.72 30.3174C10.7328 30.3348 10.7448 30.3527 10.7559 30.3713C10.767 30.3899 10.7771 30.4089 10.7863 30.4285C10.7955 30.4481 10.8036 30.4681 10.8108 30.4885C10.818 30.5089 10.8242 30.5296 10.8293 30.5506C10.8725 30.7251 10.8472 30.9237 10.7486 31.0756C10.6214 31.2713 10.4256 31.3395 10.2099 31.3886C10.0391 31.3915 9.87906 31.3585 9.73609 31.2608C9.59535 31.1646 9.49348 31.0168 9.4641 30.848C9.46038 30.8254 9.45781 30.8027 9.45641 30.7798C9.45497 30.757 9.4547 30.7341 9.45559 30.7113C9.45647 30.6884 9.45852 30.6656 9.46172 30.6429C9.4649 30.6203 9.46922 30.5978 9.47469 30.5756C9.48013 30.5534 9.48668 30.5315 9.49434 30.5099C9.50202 30.4883 9.51076 30.4672 9.52055 30.4465C9.53036 30.4258 9.54118 30.4057 9.55301 30.3861C9.56486 30.3665 9.57766 30.3476 9.59141 30.3293C9.72555 30.149 9.9052 30.0778 10.1192 30.0444Z" fill="white"/>
<path d="M12.2228 22.6011C12.2592 22.611 12.279 22.6212 12.3083 22.6449C12.3831 22.8277 12.3319 24.3006 12.3292 24.6067C12.3139 25.7127 12.3207 26.8186 12.3495 27.9244C12.3633 28.5717 12.4073 29.2283 12.3924 29.875C12.3903 29.9692 12.3945 30.0617 12.3232 30.1305C12.2771 30.1187 12.2808 30.115 12.2552 30.074C12.1368 29.5722 12.1014 29.0394 12.0616 28.5265C12.0101 27.9002 11.9796 27.2729 11.9701 26.6446C11.9605 26.0162 11.9719 25.3883 12.0044 24.7607C12.036 24.0446 12.0797 23.3042 12.2228 22.6011Z" fill="white"/>
<path d="M20.4125 15.5776L20.4441 15.6081C20.4551 15.6547 20.4485 15.6899 20.4345 15.7347C20.2519 16.3187 19.4104 17.2867 18.8823 17.5681C18.8586 17.5356 18.8398 17.5148 18.833 17.4741C18.8206 17.3992 18.93 17.3415 18.9803 17.3034C19.5926 16.8395 19.9989 16.2087 20.4125 15.5776Z" fill="white"/>
</g>
<defs>
<clipPath id="clip0_1013_153">
<rect width="40" height="40" rx="20" fill="white"/>
</clipPath>
</defs>
</svg>
