<svg width="80" height="80" viewBox="0 0 80 80" fill="none" xmlns="http://www.w3.org/2000/svg">
<g clip-path="url(#clip0_409_53)">
<path d="M49.6 12.8C49.6 12.8 44.2187 12.6812 40.45 16.45C39.8125 17.0875 39.8125 18.1125 40.45 18.75C41.0875 19.3875 42.1125 19.3875 42.75 18.75C44.85 16.65 47.4187 16.2625 48.6 16.15C48.925 16.8375 49.2875 17.6 49.45 18.4C49.4687 18.5187 49.5062 18.6375 49.55 18.75C49.4312 19.4812 49.0625 20.5625 48.3 21.45C47.6625 22.0875 47.0375 22.4 46.4 22.4C36.6375 22.4 34.7125 27.05 33.75 29.45C33.5875 29.7687 33.45 30.0812 33.45 30.4C28.3312 30.4 24.4875 28.9625 23.85 28C21.6125 24.1625 19.8375 24 12.8 24C1.76247 24 0.162474 29.4625 -2.66209e-05 30.1C-0.162527 30.5812 -0.0187767 31.0187 0.299973 31.5C0.462474 31.6625 2.41247 33.6 6.24997 33.6H7.04997C9.28747 32.6375 11.6875 32 14.25 32C24.0125 32 31.85 39.8375 31.85 49.6C31.85 50.8812 31.6687 52.1687 31.35 53.45C34.2312 54.25 37.4625 54.4 38.9 54.4H39.2C42.0812 54.4 46.2375 53.6125 48 51.85C48.8 51.05 48.95 50.25 48.95 49.45C47.5562 39.8187 52.375 35.45 54.6 33.95C55.2375 35.4062 55.8875 36.8687 56.6 38.3C53.275 40.8625 51.2 44.9937 51.2 49.45C51.2 57.45 57.6 63.85 65.6 63.85C73.6 63.85 80 57.45 80 49.45C80 41.45 73.6 35.2 65.6 35.2C63.3625 35.2 61.2687 35.6875 59.35 36.65C60.3125 38.5687 61.4312 40.4875 62.55 42.25C63.5125 41.9312 64.4812 41.6 65.6 41.6C70.0812 41.6 73.6 45.1187 73.6 49.6C73.6 54.0812 70.0812 57.6 65.6 57.6C61.1187 57.6 57.6 54.0812 57.6 49.6C57.6 47.3625 58.4125 45.4375 59.85 44C58.75 42.2687 57.65 40.3875 56.7 38.35C57.4875 37.725 58.4125 37.1187 59.35 36.65C57.9125 33.7687 56.4625 30.7375 55.5 27.7C55.4437 27.5562 55.3875 27.4187 55.3 27.3C54.0125 23.0812 52.7687 17.8687 52.65 17.75C52.6312 17.6625 52.5812 17.5812 52.55 17.5C52.1 15.5437 51 13.65 51 13.65C50.725 13.1312 50.1875 12.8062 49.6 12.8ZM59.85 44C61.7687 47.2 64.0187 50.0625 66.1 52.3C66.4187 52.6187 66.8812 52.8 67.2 52.8C67.5187 52.8 67.9812 52.6187 68.3 52.3C68.9375 51.6625 68.9375 50.7375 68.3 50.1C66.3812 48.0187 64.3187 45.2875 62.4 42.25C61.4375 42.7312 60.65 43.2 59.85 44ZM60.15 19.2C58.8687 19.2 57.6187 19.3812 56.5 19.7C57.4625 23.2187 58.7 27.8187 59.5 29.9C59.5 30.0625 59.7 30.2375 59.7 30.4H60.15C62.2312 30.4 63.5375 29.9 64.5 29.1C65.6187 27.9812 65.6 26.3812 65.6 25.1V24.5C65.6 23.2187 65.6187 21.6187 64.5 20.5C63.5375 19.7 62.2312 19.2 60.15 19.2ZM14.4 35.2C6.39997 35.2 -2.66209e-05 41.6 -2.66209e-05 49.6C-2.66209e-05 57.6 6.39997 64 14.4 64C21.7625 64 27.85 58.4 28.65 51.2H22.25C21.45 54.8812 18.2375 57.6 14.4 57.6C9.91873 57.6 6.39997 54.0812 6.39997 49.6C6.39997 45.1187 9.91873 41.6 14.4 41.6C18.2375 41.6 21.45 44.3187 22.25 48H28.65C27.85 40.8 21.7625 35.2 14.4 35.2ZM22.25 48H18.95C18.3125 46.1062 16.5562 44.8 14.4 44.8C11.6812 44.8 9.59997 46.8812 9.59997 49.6C9.59997 52.3187 11.6812 54.4 14.4 54.4C16.5562 54.4 18.3125 53.0937 18.95 51.2H22.25C22.4125 50.7187 22.4 50.0812 22.4 49.6C22.4 49.1187 22.4125 48.4812 22.25 48Z" fill="#97C8DF"/>
</g>
<defs>
<clipPath id="clip0_409_53">
<rect width="80" height="80" fill="white"/>
</clipPath>
</defs>
</svg>
