<svg width="70" height="70" viewBox="0 0 70 70" fill="none" xmlns="http://www.w3.org/2000/svg">
<g clip-path="url(#clip0_181_14)">
<path d="M55.4064 3.1345C54.5042 3.69845 52.4179 5.95351 51.2622 6.40422C50.9071 6.54289 50.6181 6.73627 50.3801 6.93581C50.8423 6.02516 50.8393 4.54439 47.8045 2.91646C47.4309 2.71538 47.1574 2.91723 47.1165 3.3402C47.0873 3.64375 47.0141 3.97119 46.8469 4.18691C46.5872 4.52436 46.1735 4.05825 46.1889 3.63297C46.2282 2.54974 46.2768 0.663718 46.1581 0.286977C45.9886 -0.248474 45.3122 2.11907 44.551 2.71153C43.8607 3.24775 44.6766 1.67761 42.5271 1.35788C42.1064 1.29547 41.4153 1.30164 40.9908 1.27852C38.3421 1.13753 36.7088 0.420261 36.3482 0.0335041C35.9884 -0.351712 38.2966 2.72309 39.6703 3.37641C37.9753 3.01277 32.2248 2.07438 29.8265 3.00506C29.4297 3.15915 29.4983 3.46501 29.9058 3.59059C30.741 3.84792 32.0561 4.34793 32.6293 5.07907C33.5038 6.19235 29.6693 2.62678 23.4866 9.24172C19.3509 13.6671 17.7122 14.6779 16.9179 14.8505C16.5026 14.9414 16.4379 15.0069 16.8085 15.2157C17.4603 15.5808 18.4865 16.0323 19.3524 15.8567C20.7169 15.5801 13.4532 16.9861 14.4016 30.0295C14.4325 30.4541 14.5388 30.4594 14.6759 30.0565C14.8662 29.4995 15.1998 28.726 15.7322 28.0865C16.0049 27.7599 16.1497 27.8662 15.9949 28.2629C15.5835 29.3177 14.8701 31.2168 14.8701 31.7183L14.9525 69.3424C14.9533 69.7685 15.2969 70.0728 15.7137 69.985C17.6613 69.5766 23.1129 67.9287 29.2371 61.6558C33.5461 57.2412 35.4691 55.7466 36.3266 55.2843C36.7003 55.0817 37.3359 55.4292 37.3274 55.8545C37.3174 56.3768 36.9784 57.279 35.664 58.7991C33.1355 61.7252 28.593 61.2144 28.6778 67.2754C28.6839 67.7006 29.0437 68.1475 29.4682 68.1752C30.3843 68.2353 32.0553 68.0535 34.0477 66.5042C36.6155 64.5064 37.4715 64.8092 38.5801 64.2761C38.963 64.0912 38.9908 64.159 38.9561 64.5827C38.9399 64.7861 38.9946 64.9879 39.2065 65.1266C39.5624 65.3585 40.292 65.3123 40.7173 65.3007C41.9454 65.2638 42.7559 65.0403 43.8568 64.4748C45.172 63.7984 46.1504 63.7606 46.6011 62.1813C47.0518 60.6026 49.6828 59.5502 49.7953 57.4084C49.9078 55.2659 54.6059 50.4175 53.9672 48.2749C53.3285 46.1324 53.9672 45.1555 48.4424 45.0422C43.7451 44.9474 44.5625 43.5745 43.5271 43.2109C43.1257 43.0699 42.8537 42.791 42.9285 42.3719C43.1943 40.8857 43.5618 37.3564 42.2043 33.1652C41.054 29.6181 41.0956 27.7059 41.2766 26.786C41.3575 26.3684 41.8637 26.1643 42.2058 26.4185C43.0856 27.0711 44.5379 28.8647 44.7975 33.6537C45.172 40.6068 47.9917 37.4126 49.7953 37.9011C51.5989 38.3895 50.6598 36.9611 51.5997 35.9087C52.4418 34.9665 53.2222 34.2346 52.8093 32.2569C52.7222 31.8401 52.5119 31.1813 52.4256 30.7645C51.8239 27.8746 51.884 22.2659 53.2908 18.3182C54.7215 14.3042 52.9117 14.5361 51.8778 11.5946C51.7368 11.1932 51.8878 10.6023 52.1575 10.2741C52.8478 9.43664 54.0373 7.8534 54.3332 6.57294C54.7577 4.74162 56.3078 2.57054 55.4064 3.1345Z" fill="#97C8DF"/>
</g>
<defs>
<clipPath id="clip0_181_14">
<rect width="70" height="70" fill="white"/>
</clipPath>
</defs>
</svg>
