<svg width="40" height="40" viewBox="0 0 40 40" fill="none" xmlns="http://www.w3.org/2000/svg">
<path d="M23.2 2.3999C22.45 2.3999 21.7313 2.70615 21.2 3.1999C20.6688 3.69365 20.2906 4.34678 20 5.1249C19.4844 6.5124 19.2688 8.31553 19.225 10.4249C15.3875 10.5437 11.8563 11.5374 9.025 13.1749C8.17188 12.3749 7.08438 11.9749 6 11.9749C4.87188 11.9749 3.74063 12.4093 2.875 13.2749C1.14062 15.0093 1.14062 17.7905 2.875 19.5249L3.075 19.7249C2.65 20.828 2.4 21.9905 2.4 23.1999C2.4 26.8218 4.45312 30.0687 7.65 32.3499C10.8469 34.6311 15.2063 35.9999 20 35.9999C24.7938 35.9999 29.1531 34.6311 32.35 32.3499C35.5469 30.0687 37.6 26.8218 37.6 23.1999C37.6 21.9905 37.35 20.828 36.925 19.7249L37.125 19.5249C38.8594 17.7905 38.8594 15.0093 37.125 13.2749C36.2594 12.4093 35.1281 11.9749 34 11.9749C32.9156 11.9749 31.8281 12.3749 30.975 13.1749C28.1562 11.5468 24.6406 10.553 20.825 10.4249C20.875 8.4374 21.0906 6.7749 21.5 5.6749C21.7313 5.05303 22.0219 4.60615 22.3 4.3499C22.5781 4.09365 22.8313 3.9999 23.2 3.9999C23.5688 3.9999 23.7469 4.0999 24.025 4.3249C24.3031 4.5499 24.6281 4.91865 25.05 5.3499C25.8031 6.12178 26.9563 6.97178 28.875 7.1499C29.2313 8.99053 30.8594 10.3999 32.8 10.3999C35 10.3999 36.8 8.5999 36.8 6.3999C36.8 4.1999 35 2.3999 32.8 2.3999C30.8844 2.3999 29.2594 3.76865 28.875 5.5749C27.45 5.4374 26.8219 4.8874 26.2 4.2499C25.8406 3.88115 25.5094 3.4499 25.05 3.0749C24.5906 2.6999 23.95 2.3999 23.2 2.3999ZM32.8 3.9999C34.1344 3.9999 35.2 5.06553 35.2 6.3999C35.2 7.73428 34.1344 8.7999 32.8 8.7999C31.4656 8.7999 30.4 7.73428 30.4 6.3999C30.4 5.06553 31.4656 3.9999 32.8 3.9999ZM20 11.9999C24.4875 11.9999 28.5406 13.2905 31.425 15.3499C34.3094 17.4093 36 20.1812 36 23.1999C36 26.2187 34.3094 28.9905 31.425 31.0499C28.5406 33.1093 24.4875 34.3999 20 34.3999C15.5125 34.3999 11.4594 33.1093 8.575 31.0499C5.69062 28.9905 4 26.2187 4 23.1999C4 20.1812 5.69062 17.4093 8.575 15.3499C11.4594 13.2905 15.5125 11.9999 20 11.9999ZM6 13.5499C6.5625 13.5499 7.13125 13.7187 7.625 14.0749C6.02188 15.2249 4.70938 16.6155 3.8 18.1749C2.86563 17.0374 2.92813 15.4718 4 14.3999C4.57188 13.828 5.2875 13.5499 6 13.5499ZM34 13.5499C34.7125 13.5499 35.4281 13.828 36 14.3999C37.0719 15.4718 37.1344 17.0374 36.2 18.1749C35.2906 16.6155 33.9781 15.2249 32.375 14.0749C32.8688 13.7187 33.4375 13.5499 34 13.5499ZM13.6 17.5999C11.8406 17.5999 10.4 19.0405 10.4 20.7999C10.4 22.5593 11.8406 23.9999 13.6 23.9999C15.3594 23.9999 16.8 22.5593 16.8 20.7999C16.8 19.0405 15.3594 17.5999 13.6 17.5999ZM26.4 17.5999C24.6406 17.5999 23.2 19.0405 23.2 20.7999C23.2 22.5593 24.6406 23.9999 26.4 23.9999C28.1594 23.9999 29.6 22.5593 29.6 20.7999C29.6 19.0405 28.1594 17.5999 26.4 17.5999ZM13.6 19.1999C14.4938 19.1999 15.2 19.9062 15.2 20.7999C15.2 21.6937 14.4938 22.3999 13.6 22.3999C12.7063 22.3999 12 21.6937 12 20.7999C12 19.9062 12.7063 19.1999 13.6 19.1999ZM26.4 19.1999C27.2938 19.1999 28 19.9062 28 20.7999C28 21.6937 27.2938 22.3999 26.4 22.3999C25.5063 22.3999 24.8 21.6937 24.8 20.7999C24.8 19.9062 25.5063 19.1999 26.4 19.1999ZM27.325 27.0749C27.2812 27.0812 27.2406 27.0874 27.2 27.0999C26.9469 27.1499 26.7344 27.3155 26.625 27.5499C26.625 27.5499 26.2063 28.1312 25.15 28.7999C24.0938 29.4687 22.4469 30.1499 20 30.1499C17.5531 30.1499 15.9063 29.4687 14.85 28.7999C13.7938 28.1312 13.375 27.5499 13.375 27.5499C13.1938 27.2655 12.8531 27.1249 12.525 27.1999C12.2656 27.2655 12.0563 27.453 11.9656 27.7062C11.875 27.9562 11.9156 28.2343 12.075 28.4499C12.075 28.4499 12.6906 29.3374 13.975 30.1499C15.2594 30.9624 17.2469 31.7499 20 31.7499C22.7531 31.7499 24.7406 30.9624 26.025 30.1499C27.3094 29.3374 27.925 28.4499 27.925 28.4499C28.1656 28.2187 28.2375 27.8593 28.1031 27.553C27.9688 27.2468 27.6594 27.0562 27.325 27.0749Z" fill="white"/>
</svg>
